<svg width="21" height="21" viewBox="0 0 21 21" fill="none" xmlns="http://www.w3.org/2000/svg">
<g clip-path="url(#clip0_0_411)">
<circle cx="10.5" cy="10.5" r="10.5" fill="white"/>
<path d="M6.29939 6.48089H5.1397L8.30133 15.4181L10.0713 10.3601L8.69903 6.48089H7.47545V5.6293H12.8938V6.48089H11.625L14.7866 15.4181L15.923 12.1704C17.4139 8.00942 14.7011 6.71327 14.7011 5.78466C14.7011 4.85605 15.4539 4.1033 16.3825 4.1033C16.4327 4.1033 16.4815 4.10602 16.5293 4.11047C14.956 2.62519 12.8344 1.71436 10.4999 1.71436C7.44955 1.71436 4.76265 3.26921 3.18753 5.6293H6.2993V6.48089H6.29939Z" fill="#19B885"/>
<path d="M1.71445 10.4997C1.71445 13.8633 3.60498 16.7849 6.38111 18.2612L2.41635 7.05371C1.96471 8.11179 1.71445 9.2765 1.71445 10.4997Z" fill="#19B885"/>
<path d="M18.146 6.1709C18.2717 6.91084 18.2336 7.7425 18.0408 8.57738H18.0757L17.9429 8.95697C17.8642 9.23106 17.765 9.51144 17.6525 9.78694L14.6295 18.256C17.3998 16.7779 19.2855 13.8594 19.2855 10.5001C19.2855 8.92597 18.8711 7.44875 18.146 6.1709Z" fill="#19B885"/>
<path d="M7.79044 18.859C8.64395 19.1354 9.55436 19.2854 10.5 19.2854C11.402 19.2854 12.2721 19.1493 13.0912 18.8968L10.5213 11.6323L7.79044 18.859Z" fill="#19B885"/>
<path d="M17.9246 3.07536C15.9414 1.09219 13.3046 0 10.5 0C7.6953 0 5.05854 1.09219 3.07536 3.07536C1.09219 5.05854 0 7.6953 0 10.5C0 13.3046 1.09219 15.9414 3.07536 17.9246C5.05854 19.9078 7.69535 21 10.5 21C13.3047 21 15.9414 19.9078 17.9246 17.9246C19.9078 15.9414 21 13.3046 21 10.5C21 7.6953 19.9078 5.05854 17.9246 3.07536ZM10.5 20.2593C5.11868 20.2593 0.740695 15.8813 0.740695 10.5C0.740695 5.11872 5.11868 0.740695 10.5 0.740695C15.8812 0.740695 20.2592 5.11872 20.2592 10.5C20.2592 15.8813 15.8813 20.2593 10.5 20.2593Z" fill="#19B885"/>
</g>
<defs>
<clipPath id="clip0_0_411">
<rect width="21" height="21" fill="white"/>
</clipPath>
</defs>
</svg>
